<?xml version="1.0" encoding="UTF-8" standalone="no"?>
<svg width="109px" height="30px" viewBox="0 0 109 30" version="1.1" xmlns="http://www.w3.org/2000/svg" xmlns:xlink="http://www.w3.org/1999/xlink">
    <!-- Generator: Sketch 47 (45396) - http://www.bohemiancoding.com/sketch -->
    <title>logoPrecise4pt</title>
    <desc>Created with Sketch.</desc>
    <defs></defs>
    <g id="20170822_GloucesterTabs" stroke="none" stroke-width="1" fill="none" fill-rule="evenodd">
        <g id="gccTimeout3" transform="translate(-707.000000, -253.000000)" fill-rule="nonzero" fill="#0090D7">
            <g id="Group-38" transform="translate(255.000000, 60.000000)">
                <g id="Group" transform="translate(0.000000, 36.000000)">
                    <g id="content" transform="translate(350.000000, 157.000000)">
                        <g id="logoPrecise4pt" transform="translate(102.000000, 0.000000)">
                            <path d="M18.5,22 L5,22 C5.65574296,24.4331286 7.83930699,25.5244752 10.619901,25.5244752 C12.5122376,25.5244752 14.2887524,24.8678614 15.9494454,23.5929508 L18.1117426,27.1468512 C15.8336236,29.0391878 13.2454854,30 10.3116234,30 C7.41433679,30 4.94289119,29.0391878 2.97304978,27.1468512 C1.0040792,25.2153268 0,22.859703 0,20.040792 C0,17.221881 0.965762215,14.8270694 2.85722798,12.8964158 C4.78875241,10.9648914 7.10605922,10 9.8474654,10 C12.5897424,10 14.8295444,10.8490696 16.4893666,12.5489504 C18.1500596,14.2479604 19,16.3719406 19,18.882574 C19,19.8091484 18.9816436,20.5351086 18.75,21.5 L18.5,22 Z M9.80914841,14.2087726 C7.6076634,14.2087726 5.61742598,15.6443762 5,18 L14,18 C13.9608122,15.6443762 12.0872674,14.2087726 9.80914841,14.2087726 Z" id="Fill-7"></path>
                            <path d="M108.5,22 L95,22 C95.655743,24.4331286 97.839307,25.5244752 100.619901,25.5244752 C102.512238,25.5244752 104.288752,24.8678614 105.949445,23.5929508 L108.111743,27.1468512 C105.833624,29.0391878 103.245485,30 100.311623,30 C97.4143368,30 94.9428912,29.0391878 92.9730498,27.1468512 C91.0040792,25.2153268 90,22.859703 90,20.040792 C90,17.221881 90.9657622,14.8270694 92.857228,12.8964158 C94.7887524,10.9648914 97.1060592,10 99.8474654,10 C102.589742,10 104.829544,10.8490696 106.489367,12.5489504 C108.15006,14.2479604 109,16.3719406 109,18.882574 C109,19.8091484 108.981644,20.5351086 108.75,21.5 L108.5,22 Z M99.8091484,14.2087726 C97.6076634,14.2087726 95.617426,15.6443762 95,18 L104,18 C103.960812,15.6443762 102.087267,14.2087726 99.8091484,14.2087726 Z" id="Fill-7"></path>
                            <polyline id="Fill-9" points="35.3277588 10 29.4655518 23.1450429 23.6015656 10 18 10 27.6650803 30 31.2651337 30 40.9293244 10 35.3277588 10"></polyline>
                            <polyline id="Fill-9-Copy" points="85.3277588 10 79.4655518 23.1450429 73.6015656 10 68 10 77.6650803 30 81.2651337 30 90.9293244 10 85.3277588 10"></polyline>
                            <polygon id="Fill-11" points="62 30 67 30 67 0 62 0"></polygon>
                            <g id="Group-4" transform="translate(40.000000, 10.000000)">
                                <path d="M20,10 C20,15.5230386 15.5230386,20 10,20 C4.47696139,20 3.55271368e-15,15.5230386 3.55271368e-15,10 C3.55271368e-15,4.47696139 4.47696139,0 10,0 C15.5230386,0 20,4.47696139 20,10 Z M8,8 L12,8 L12,4 L8,4 L8,8 Z M8,16 L12,16 L12,12 L8,12 L8,16 Z M4,12 L8,12 L8,8 L4,8 L4,12 Z M12,12 L16,12 L16,8 L12,8 L12,12 Z" id="Combined-Shape"></path>
                            </g>
                        </g>
                    </g>
                </g>
            </g>
        </g>
    </g>
</svg>